<svg width="198" height="49" viewBox="0 0 198 49" fill="none" xmlns="http://www.w3.org/2000/svg">
<path d="M1.33569 36C1.05703 36 0.829028 35.9113 0.651694 35.734C0.499694 35.5313 0.449028 35.2907 0.499694 35.012L5.74369 10.388C5.79436 10.1093 5.93369 9.88133 6.16169 9.704C6.41503 9.50133 6.68103 9.4 6.95969 9.4H18.4357C20.6144 9.4 22.4257 9.704 23.8697 10.312C25.339 10.92 26.3777 11.794 26.9857 12.934C27.619 14.074 27.7584 15.48 27.4037 17.152C27.2264 18.0387 26.8844 18.824 26.3777 19.508C25.8964 20.1667 25.3644 20.7113 24.7817 21.142C24.2244 21.5727 23.7177 21.8893 23.2617 22.092C24.1484 22.548 24.845 23.2827 25.3517 24.296C25.8584 25.3093 25.9724 26.4747 25.6937 27.792C25.3137 29.5653 24.655 31.06 23.7177 32.276C22.8057 33.492 21.577 34.4167 20.0317 35.05C18.5117 35.6833 16.637 36 14.4077 36H1.33569ZM9.69569 30.262H14.1037C14.965 30.262 15.649 30.0087 16.1557 29.502C16.6877 28.97 17.017 28.3873 17.1437 27.754C17.321 27.0953 17.2577 26.5253 16.9537 26.044C16.6497 25.5373 16.0544 25.284 15.1677 25.284H10.7597L9.69569 30.262ZM11.9377 19.698H15.9657C16.751 19.698 17.3844 19.47 17.8657 19.014C18.3724 18.558 18.7017 18.026 18.8537 17.418C18.955 16.81 18.879 16.278 18.6257 15.822C18.3724 15.366 17.853 15.138 17.0677 15.138H12.9257L11.9377 19.698ZM38.1482 36.38C36.0455 36.38 34.2722 36.0507 32.8282 35.392C31.3842 34.7333 30.3329 33.7707 29.6742 32.504C29.0155 31.212 28.8255 29.6667 29.1042 27.868C29.1802 27.336 29.2815 26.7533 29.4082 26.12C29.5349 25.4867 29.6742 24.904 29.8262 24.372C30.3582 22.548 31.1309 21.0027 32.1442 19.736C33.1575 18.4693 34.4622 17.5067 36.0582 16.848C37.6795 16.1893 39.6049 15.86 41.8342 15.86C43.8609 15.86 45.5962 16.1893 47.0402 16.848C48.4842 17.5067 49.5609 18.4693 50.2702 19.736C50.9795 21.0027 51.1949 22.548 50.9162 24.372C50.8149 24.904 50.7009 25.4867 50.5742 26.12C50.4475 26.7533 50.3082 27.336 50.1562 27.868C49.6749 29.6667 48.9402 31.212 47.9522 32.504C46.9642 33.7707 45.6722 34.7333 44.0762 35.392C42.4802 36.0507 40.5042 36.38 38.1482 36.38ZM38.9082 31.022C39.8455 31.022 40.5549 30.7433 41.0362 30.186C41.5175 29.6287 41.9102 28.7927 42.2142 27.678C42.3155 27.298 42.4295 26.7787 42.5562 26.12C42.7082 25.4613 42.8095 24.942 42.8602 24.562C43.0375 23.4727 43.0122 22.6493 42.7842 22.092C42.5815 21.5093 42.0115 21.218 41.0742 21.218C40.1622 21.218 39.4529 21.5093 38.9462 22.092C38.4649 22.6493 38.0849 23.4727 37.8062 24.562C37.7049 24.942 37.5782 25.4613 37.4262 26.12C37.2742 26.7787 37.1729 27.298 37.1222 27.678C36.9702 28.7927 36.9955 29.6287 37.1982 30.186C37.4009 30.7433 37.9709 31.022 38.9082 31.022ZM59.9982 36.38C58.6049 36.38 57.3762 36.0633 56.3122 35.43C55.2735 34.7967 54.5262 33.8467 54.0702 32.58C53.6395 31.3133 53.6395 29.7173 54.0702 27.792L56.2742 17.228C56.3249 16.9493 56.4642 16.7213 56.6922 16.544C56.9455 16.3413 57.2115 16.24 57.4902 16.24H63.4942C63.7729 16.24 63.9882 16.3413 64.1402 16.544C64.2922 16.7213 64.3429 16.9493 64.2922 17.228L62.0882 27.526C61.9615 28.1593 61.9362 28.6913 62.0122 29.122C62.0882 29.5527 62.2909 29.882 62.6202 30.11C62.9495 30.338 63.4055 30.452 63.9882 30.452C64.8495 30.452 65.5715 30.1987 66.1542 29.692C66.7622 29.1853 67.1675 28.4633 67.3702 27.526L69.5362 17.228C69.5869 16.9493 69.7262 16.7213 69.9542 16.544C70.2075 16.3413 70.4735 16.24 70.7522 16.24H76.7562C77.0349 16.24 77.2375 16.3413 77.3642 16.544C77.5162 16.7213 77.5669 16.9493 77.5162 17.228L73.7542 35.012C73.7035 35.2907 73.5642 35.5313 73.3362 35.734C73.1082 35.9113 72.8549 36 72.5762 36H67.0282C66.7495 36 66.5342 35.9113 66.3822 35.734C66.2302 35.5313 66.1795 35.2907 66.2302 35.012L66.5342 33.644C65.9769 34.252 65.3942 34.7587 64.7862 35.164C64.1782 35.5693 63.4942 35.8733 62.7342 36.076C61.9742 36.2787 61.0622 36.38 59.9982 36.38ZM79.2728 36C78.9941 36 78.7788 35.9113 78.6268 35.734C78.4748 35.5313 78.4241 35.2907 78.4748 35.012L82.2368 17.228C82.2875 16.9493 82.4268 16.7213 82.6548 16.544C82.9081 16.3413 83.1741 16.24 83.4528 16.24H88.9628C89.2415 16.24 89.4441 16.3413 89.5708 16.544C89.7228 16.7213 89.7735 16.9493 89.7228 17.228L89.4568 18.596C90.2675 17.836 91.2175 17.19 92.3068 16.658C93.3961 16.126 94.6248 15.86 95.9928 15.86C97.5128 15.86 98.7795 16.1767 99.7928 16.81C100.831 17.4433 101.553 18.3933 101.959 19.66C102.389 20.9267 102.402 22.5227 101.997 24.448L99.7168 35.012C99.6661 35.2907 99.5268 35.5313 99.2988 35.734C99.0708 35.9113 98.8175 36 98.5388 36H92.5348C92.2561 36 92.0408 35.9113 91.8888 35.734C91.7368 35.5313 91.6861 35.2907 91.7368 35.012L93.9028 24.714C94.1055 23.7513 94.0548 23.0293 93.7508 22.548C93.4721 22.0413 92.8895 21.788 92.0028 21.788C91.1415 21.788 90.4068 22.0413 89.7988 22.548C89.2161 23.0547 88.8235 23.7767 88.6208 24.714L86.4168 35.012C86.3661 35.2907 86.2268 35.5313 85.9988 35.734C85.7708 35.9113 85.5175 36 85.2388 36H79.2728ZM111.733 36.38C110.567 36.38 109.516 36.2027 108.579 35.848C107.667 35.4933 106.919 34.9487 106.337 34.214C105.754 33.4793 105.349 32.5547 105.121 31.44C104.918 30.3253 104.943 29.0207 105.197 27.526C105.298 26.9687 105.387 26.4873 105.463 26.082C105.564 25.6767 105.678 25.208 105.805 24.676C106.159 23.2573 106.628 22.0033 107.211 20.914C107.819 19.7993 108.541 18.8747 109.377 18.14C110.213 17.4053 111.137 16.848 112.151 16.468C113.164 16.0627 114.253 15.86 115.419 15.86C116.584 15.86 117.623 16.05 118.535 16.43C119.472 16.7847 120.181 17.266 120.663 17.874L122.297 10.008C122.347 9.72933 122.487 9.50133 122.715 9.324C122.943 9.12133 123.196 9.02 123.475 9.02H129.327C129.58 9.02 129.783 9.12133 129.935 9.324C130.112 9.50133 130.175 9.72933 130.125 10.008L124.805 35.012C124.754 35.2907 124.602 35.5313 124.349 35.734C124.121 35.9113 123.88 36 123.627 36H118.231C117.952 36 117.737 35.9113 117.585 35.734C117.433 35.5313 117.382 35.2907 117.433 35.012L117.661 33.948C116.901 34.6827 116.065 35.278 115.153 35.734C114.266 36.1647 113.126 36.38 111.733 36.38ZM115.191 30.452C115.849 30.452 116.394 30.3127 116.825 30.034C117.281 29.7553 117.648 29.388 117.927 28.932C118.231 28.476 118.459 27.9693 118.611 27.412C118.737 26.8547 118.839 26.3733 118.915 25.968C119.016 25.5627 119.105 25.094 119.181 24.562C119.282 24.03 119.282 23.5613 119.181 23.156C119.079 22.7507 118.864 22.4213 118.535 22.168C118.205 21.9147 117.737 21.788 117.129 21.788C116.495 21.788 115.951 21.9273 115.495 22.206C115.064 22.4593 114.709 22.8267 114.431 23.308C114.177 23.764 113.962 24.296 113.785 24.904C113.683 25.284 113.582 25.6893 113.481 26.12C113.379 26.5507 113.303 26.956 113.253 27.336C113.177 27.944 113.164 28.4887 113.215 28.97C113.265 29.426 113.443 29.7933 113.747 30.072C114.076 30.3253 114.557 30.452 115.191 30.452Z" fill="white"/>
<path d="M130.751 36C130.472 36 130.244 35.9113 130.067 35.734C129.915 35.5313 129.864 35.2907 129.915 35.012L135.159 10.388C135.21 10.1093 135.349 9.88133 135.577 9.704C135.83 9.50133 136.096 9.4 136.375 9.4H154.653C154.932 9.4 155.147 9.50133 155.299 9.704C155.476 9.88133 155.54 10.1093 155.489 10.388L154.425 15.214C154.374 15.4673 154.235 15.6953 154.007 15.898C153.779 16.1007 153.526 16.202 153.247 16.202H141.961L141.049 20.382H151.575C151.854 20.382 152.069 20.4833 152.221 20.686C152.373 20.8633 152.424 21.0913 152.373 21.37L151.347 26.158C151.296 26.4367 151.144 26.6773 150.891 26.88C150.663 27.0573 150.41 27.146 150.131 27.146H139.605L137.933 35.012C137.882 35.2907 137.743 35.5313 137.515 35.734C137.287 35.9113 137.034 36 136.755 36H130.751ZM155.104 36C154.825 36 154.61 35.9113 154.458 35.734C154.306 35.5313 154.255 35.2907 154.306 35.012L158.068 17.228C158.118 16.9493 158.258 16.7213 158.486 16.544C158.739 16.3413 159.005 16.24 159.284 16.24H164.908C165.186 16.24 165.402 16.3413 165.554 16.544C165.706 16.7213 165.756 16.9493 165.706 17.228L161.906 35.012C161.855 35.2907 161.716 35.5313 161.488 35.734C161.26 35.9113 161.006 36 160.728 36H155.104ZM159.892 13.77C159.613 13.77 159.398 13.6813 159.246 13.504C159.094 13.3013 159.043 13.0607 159.094 12.782L159.93 8.792C159.98 8.51333 160.12 8.27267 160.348 8.07C160.601 7.86733 160.867 7.766 161.146 7.766H166.656C166.909 7.766 167.112 7.86733 167.264 8.07C167.416 8.27267 167.466 8.51333 167.416 8.792L166.542 12.782C166.516 13.0607 166.377 13.3013 166.124 13.504C165.896 13.6813 165.642 13.77 165.364 13.77H159.892ZM177.855 36C176.056 36 174.523 35.7467 173.257 35.24C172.015 34.7333 171.129 33.91 170.597 32.77C170.065 31.6047 170.001 30.072 170.407 28.172L171.737 22.054H168.735C168.456 22.054 168.241 21.9653 168.089 21.788C167.937 21.5853 167.886 21.3447 167.937 21.066L168.735 17.228C168.785 16.9493 168.925 16.7213 169.153 16.544C169.406 16.3413 169.672 16.24 169.951 16.24H172.953L174.283 10.008C174.333 9.72933 174.473 9.50133 174.701 9.324C174.929 9.12133 175.182 9.02 175.461 9.02H180.971C181.249 9.02 181.465 9.12133 181.617 9.324C181.794 9.50133 181.857 9.72933 181.807 10.008L180.477 16.24H185.227C185.505 16.24 185.708 16.3413 185.835 16.544C185.987 16.7213 186.037 16.9493 185.987 17.228L185.227 21.066C185.176 21.3447 185.024 21.5853 184.771 21.788C184.543 21.9653 184.289 22.054 184.011 22.054H179.223L178.045 27.526C177.943 28.0073 177.905 28.4253 177.931 28.78C177.981 29.1347 178.121 29.4133 178.349 29.616C178.577 29.7933 178.931 29.882 179.413 29.882H182.643C182.921 29.882 183.137 29.9833 183.289 30.186C183.441 30.3633 183.491 30.5913 183.441 30.87L182.529 35.012C182.478 35.2907 182.339 35.5313 182.111 35.734C181.883 35.9113 181.642 36 181.389 36H177.855ZM186.864 36C186.586 36 186.37 35.9113 186.218 35.734C186.066 35.5313 186.016 35.2907 186.066 35.012L187.282 29.312C187.333 29.0333 187.472 28.7927 187.7 28.59C187.954 28.3873 188.22 28.286 188.498 28.286H194.198C194.477 28.286 194.692 28.3873 194.844 28.59C194.996 28.7927 195.047 29.0333 194.996 29.312L193.78 35.012C193.73 35.2907 193.578 35.5313 193.324 35.734C193.096 35.9113 192.856 36 192.602 36H186.864Z" fill="#FF5E00"/>
<rect y="47" width="198" height="2" rx="1" fill="white"/>
</svg>
