<svg width="171" height="49" viewBox="0 0 171 49" fill="none" xmlns="http://www.w3.org/2000/svg">
<path d="M7.27515 36C6.99648 36 6.76848 35.9113 6.59115 35.734C6.43915 35.5313 6.38848 35.2907 6.43915 35.012L11.6831 10.388C11.7338 10.1093 11.8731 9.88133 12.1011 9.704C12.3545 9.50133 12.6205 9.4 12.8991 9.4H31.1771C31.4558 9.4 31.6711 9.50133 31.8231 9.704C32.0005 9.88133 32.0638 10.1093 32.0131 10.388L30.9491 15.214C30.8985 15.4673 30.7591 15.6953 30.5311 15.898C30.3031 16.1007 30.0498 16.202 29.7711 16.202H18.4851L17.5731 20.382H28.0991C28.3778 20.382 28.5931 20.4833 28.7451 20.686C28.8971 20.8633 28.9478 21.0913 28.8971 21.37L27.8711 26.158C27.8205 26.4367 27.6685 26.6773 27.4151 26.88C27.1871 27.0573 26.9338 27.146 26.6551 27.146H16.1291L14.4571 35.012C14.4065 35.2907 14.2671 35.5313 14.0391 35.734C13.8111 35.9113 13.5578 36 13.2791 36H7.27515ZM31.6649 36C31.3862 36 31.1709 35.9113 31.0189 35.734C30.8669 35.5313 30.8162 35.2907 30.8669 35.012L36.1869 10.008C36.2376 9.72933 36.3769 9.50133 36.6049 9.324C36.8329 9.12133 37.0862 9.02 37.3649 9.02H42.9889C43.2676 9.02 43.4829 9.12133 43.6349 9.324C43.8122 9.50133 43.8756 9.72933 43.8249 10.008L38.4669 35.012C38.4162 35.2907 38.2769 35.5313 38.0489 35.734C37.8209 35.9113 37.5676 36 37.2889 36H31.6649ZM53.123 36.38C51.0204 36.38 49.2597 36.0253 47.841 35.316C46.4477 34.5813 45.485 33.4793 44.953 32.01C44.421 30.5407 44.383 28.6787 44.839 26.424C44.8644 26.3227 44.8897 26.196 44.915 26.044C44.9404 25.8667 44.9657 25.74 44.991 25.664C45.4977 23.5613 46.3337 21.788 47.499 20.344C48.6644 18.8747 50.0957 17.76 51.793 17C53.4904 16.24 55.3777 15.86 57.455 15.86C59.7857 15.86 61.6097 16.3287 62.927 17.266C64.2697 18.178 65.1437 19.4067 65.549 20.952C65.9797 22.472 66.005 24.182 65.625 26.082L65.435 27.146C65.3844 27.3993 65.2324 27.6273 64.979 27.83C64.751 28.0327 64.4977 28.134 64.219 28.134H52.477C52.477 28.134 52.4644 28.1593 52.439 28.21C52.439 28.2607 52.439 28.3113 52.439 28.362C52.3124 28.97 52.2744 29.5147 52.325 29.996C52.401 30.452 52.5784 30.8193 52.857 31.098C53.161 31.3513 53.5664 31.478 54.073 31.478C54.4024 31.478 54.6937 31.4273 54.947 31.326C55.2004 31.2247 55.4284 31.098 55.631 30.946C55.8337 30.7687 56.0237 30.604 56.201 30.452C56.4797 30.224 56.695 30.0847 56.847 30.034C57.0244 29.958 57.2524 29.92 57.531 29.92H63.497C63.7504 29.92 63.9404 29.996 64.067 30.148C64.1937 30.3 64.219 30.49 64.143 30.718C64.0164 31.174 63.687 31.7313 63.155 32.39C62.623 33.0233 61.8757 33.644 60.913 34.252C59.9757 34.86 58.8484 35.3667 57.531 35.772C56.2137 36.1773 54.7444 36.38 53.123 36.38ZM53.389 23.878H58.139V23.802C58.291 23.118 58.3164 22.5353 58.215 22.054C58.139 21.5727 57.949 21.218 57.645 20.99C57.341 20.7367 56.9357 20.61 56.429 20.61C55.9224 20.61 55.4664 20.7367 55.061 20.99C54.6557 21.218 54.3137 21.5727 54.035 22.054C53.7817 22.5353 53.5664 23.118 53.389 23.802V23.878ZM65.3911 36C65.0111 36 64.7831 35.8353 64.7071 35.506C64.6311 35.1767 64.6944 34.8853 64.8971 34.632L73.1811 25.626L69.3051 17.608C69.2038 17.304 69.2544 17 69.4571 16.696C69.6851 16.392 69.9638 16.24 70.2931 16.24H75.9171C76.2718 16.24 76.5124 16.3287 76.6391 16.506C76.7911 16.658 76.8924 16.7973 76.9431 16.924L78.9191 20.876L82.6051 16.924C82.7064 16.7973 82.8584 16.658 83.0611 16.506C83.2638 16.3287 83.5551 16.24 83.9351 16.24H89.9771C90.3824 16.24 90.6231 16.4173 90.6991 16.772C90.7751 17.1013 90.6991 17.3927 90.4711 17.646L82.7571 26.12L86.7851 34.632C86.9371 34.9613 86.9244 35.278 86.7471 35.582C86.5951 35.8607 86.3038 36 85.8731 36H80.0971C79.7931 36 79.5651 35.924 79.4131 35.772C79.2864 35.62 79.1851 35.4807 79.1091 35.354L76.9431 30.984L72.8771 35.354C72.7758 35.4553 72.6238 35.5947 72.4211 35.772C72.2438 35.924 71.9778 36 71.6231 36H65.3911ZM91.1305 36C90.8518 36 90.6365 35.9113 90.4845 35.734C90.3325 35.5313 90.2818 35.2907 90.3325 35.012L94.0945 17.228C94.1451 16.9493 94.2845 16.7213 94.5125 16.544C94.7658 16.3413 95.0318 16.24 95.3105 16.24H100.934C101.213 16.24 101.428 16.3413 101.58 16.544C101.732 16.7213 101.783 16.9493 101.732 17.228L97.9325 35.012C97.8818 35.2907 97.7425 35.5313 97.5145 35.734C97.2865 35.9113 97.0331 36 96.7545 36H91.1305ZM95.9185 13.77C95.6398 13.77 95.4245 13.6813 95.2725 13.504C95.1205 13.3013 95.0698 13.0607 95.1205 12.782L95.9565 8.792C96.0071 8.51333 96.1465 8.27267 96.3745 8.07C96.6278 7.86733 96.8938 7.766 97.1725 7.766H102.682C102.936 7.766 103.138 7.86733 103.29 8.07C103.442 8.27267 103.493 8.51333 103.442 8.792L102.568 12.782C102.543 13.0607 102.404 13.3013 102.15 13.504C101.922 13.6813 101.669 13.77 101.39 13.77H95.9185Z" fill="white"/>
<path d="M103.811 36C103.533 36 103.305 35.9113 103.127 35.734C102.975 35.5313 102.925 35.2907 102.975 35.012L108.219 10.388C108.27 10.1093 108.409 9.88133 108.637 9.704C108.891 9.50133 109.157 9.4 109.435 9.4H127.713C127.992 9.4 128.207 9.50133 128.359 9.704C128.537 9.88133 128.6 10.1093 128.549 10.388L127.485 15.214C127.435 15.4673 127.295 15.6953 127.067 15.898C126.839 16.1007 126.586 16.202 126.307 16.202H115.021L114.109 20.382H124.635C124.914 20.382 125.129 20.4833 125.281 20.686C125.433 20.8633 125.484 21.0913 125.433 21.37L124.407 26.158C124.357 26.4367 124.205 26.6773 123.951 26.88C123.723 27.0573 123.47 27.146 123.191 27.146H112.665L110.993 35.012C110.943 35.2907 110.803 35.5313 110.575 35.734C110.347 35.9113 110.094 36 109.815 36H103.811ZM128.164 36C127.885 36 127.67 35.9113 127.518 35.734C127.366 35.5313 127.315 35.2907 127.366 35.012L131.128 17.228C131.179 16.9493 131.318 16.7213 131.546 16.544C131.799 16.3413 132.065 16.24 132.344 16.24H137.968C138.247 16.24 138.462 16.3413 138.614 16.544C138.766 16.7213 138.817 16.9493 138.766 17.228L134.966 35.012C134.915 35.2907 134.776 35.5313 134.548 35.734C134.32 35.9113 134.067 36 133.788 36H128.164ZM132.952 13.77C132.673 13.77 132.458 13.6813 132.306 13.504C132.154 13.3013 132.103 13.0607 132.154 12.782L132.99 8.792C133.041 8.51333 133.18 8.27267 133.408 8.07C133.661 7.86733 133.927 7.766 134.206 7.766H139.716C139.969 7.766 140.172 7.86733 140.324 8.07C140.476 8.27267 140.527 8.51333 140.476 8.792L139.602 12.782C139.577 13.0607 139.437 13.3013 139.184 13.504C138.956 13.6813 138.703 13.77 138.424 13.77H132.952ZM150.915 36C149.116 36 147.584 35.7467 146.317 35.24C145.076 34.7333 144.189 33.91 143.657 32.77C143.125 31.6047 143.062 30.072 143.467 28.172L144.797 22.054H141.795C141.516 22.054 141.301 21.9653 141.149 21.788C140.997 21.5853 140.946 21.3447 140.997 21.066L141.795 17.228C141.846 16.9493 141.985 16.7213 142.213 16.544C142.466 16.3413 142.732 16.24 143.011 16.24H146.013L147.343 10.008C147.394 9.72933 147.533 9.50133 147.761 9.324C147.989 9.12133 148.242 9.02 148.521 9.02H154.031C154.31 9.02 154.525 9.12133 154.677 9.324C154.854 9.50133 154.918 9.72933 154.867 10.008L153.537 16.24H158.287C158.566 16.24 158.768 16.3413 158.895 16.544C159.047 16.7213 159.098 16.9493 159.047 17.228L158.287 21.066C158.236 21.3447 158.084 21.5853 157.831 21.788C157.603 21.9653 157.35 22.054 157.071 22.054H152.283L151.105 27.526C151.004 28.0073 150.966 28.4253 150.991 28.78C151.042 29.1347 151.181 29.4133 151.409 29.616C151.637 29.7933 151.992 29.882 152.473 29.882H155.703C155.982 29.882 156.197 29.9833 156.349 30.186C156.501 30.3633 156.552 30.5913 156.501 30.87L155.589 35.012C155.538 35.2907 155.399 35.5313 155.171 35.734C154.943 35.9113 154.702 36 154.449 36H150.915ZM159.925 36C159.646 36 159.431 35.9113 159.279 35.734C159.127 35.5313 159.076 35.2907 159.127 35.012L160.343 29.312C160.393 29.0333 160.533 28.7927 160.761 28.59C161.014 28.3873 161.28 28.286 161.559 28.286H167.259C167.537 28.286 167.753 28.3873 167.905 28.59C168.057 28.7927 168.107 29.0333 168.057 29.312L166.841 35.012C166.79 35.2907 166.638 35.5313 166.385 35.734C166.157 35.9113 165.916 36 165.663 36H159.925Z" fill="#FF5E00"/>
<rect y="47" width="171" height="2" rx="1" fill="white"/>
</svg>
